<svg width="50" height="50" viewBox="0 0 59 59" fill="none" xmlns="http://www.w3.org/2000/svg">
<path d="M54.2754 49.9679C49.076 47.4328 46.0937 41.9983 46.0937 35.0336V31.0511C46.0957 30.3122
45.8748 29.59 45.46 28.9786C45.0451 28.3672 44.4556 27.8951 43.7683 27.624L38.0273 25.3516C37.5757
25.1709 37.2137 24.8191 37.0203 24.3727C36.8269 23.9263 36.8177 23.4216 36.9948 22.9685L41.9084 
10.7537C42.2419 9.95197 42.4101 9.09121 42.4031 8.22295C42.396 7.35468 42.2138 6.49676 41.8674 
5.70058C41.5209 4.90439 41.0174 4.18631 40.3868 3.58934C39.7563 2.99236 39.0118 2.52878 38.1979 
2.22634C36.6126 1.64548 34.8632 1.70574 33.3217 2.39433C31.7801 3.08292 30.5678 4.34554 29.9425 
5.91384C29.9416 5.92303 29.9416 5.9323 29.9425 5.9415L25.098 18.207C24.9179 18.6608 24.5651 19.0246 
24.117 19.2186C23.669 19.4126 23.1623 19.4209 22.7081 19.2418L16.8496 16.8565C16.1741 16.5828 15.4323 
16.5168 14.7192 16.6671C14.006 16.8174 13.3539 17.177 12.8463 17.7C7.99264 22.6897 5.53124 28.5205 
5.53124 35.0313C5.51848 41.6939 8.09513 48.1008 12.7173 52.8995C12.8904 53.0805 13.0987 53.2244 13.3293 
53.3223C13.5599 53.4201 13.8081 53.47 14.0586 53.4688H53.4687C53.8855 53.4684 54.2898 53.3268 54.6157 
53.0671C54.9417 52.8075 55.1701 52.4451 55.2636 52.039C55.3572 51.6329 55.3104 51.2071 55.131 50.831C54.9515 
50.4549 54.6499 50.1507 54.2754 49.9679ZM15.4737 20.2813L21.3299 22.6551C22.0059 22.9255 22.7286 23.0598 
23.4566 23.0503C24.1846 23.0408 24.9036 22.8877 25.5723 22.5997C26.241 22.3117 26.8463 21.8945 27.3534 
21.3721C27.8605 20.8497 28.2594 20.2323 28.5274 19.5553L33.3673 7.34044C33.9573 5.93228 35.5498 5.204 36.9234 
5.72716C37.2736 5.85709 37.5938 6.05661 37.8648 6.31369C38.1358 6.57077 38.3519 6.88007 38.5 7.22294C38.6482 
7.56581 38.7254 7.93515 38.7269 8.30866C38.7285 8.68218 38.6544 9.05214 38.509 9.39622L33.577 21.6088C33.037 
22.971 33.0597 24.4919 33.64 25.8374C34.2203 27.183 35.3108 28.2433 36.6722 28.7856L42.4062 31.0511V35.2617L12.8532 
23.441C13.639 22.318 14.5154 21.2613 15.4737 20.2813ZM26.5362 49.7813C23.7911 47.1481 21.8464 43.7925 20.9265 
40.1016C20.7984 39.6347 20.4917 39.2371 20.0728 38.9944C19.6539 38.7518 19.1564 38.6836 18.6876 38.8046C18.2189 
38.9257 17.8166 39.2262 17.5675 39.6414C17.3185 40.0565 17.2427 40.5529 17.3566 41.0234C18.161 44.1986 19.6004 
47.1778 21.588 49.7813H14.8514C11.215 45.73 9.20835 40.4752 9.21874 35.0313C9.19618 32.1469 9.80421 29.2924 11.0003 
26.6675L42.7589 39.371C43.4503 43.5194 45.1926 47.0871 47.8038 49.779L26.5362 49.7813Z" fill="black"/>
</svg>
