<svg width="42" height="42" viewBox="0 0 42 42" fill="none" xmlns="http://www.w3.org/2000/svg">
<path fill-rule="evenodd" clip-rule="evenodd" d="M23.3326 36.2126C22.3763 37.1689 21.5169 38.0283 20.7265 38.7692H40.3846C40.813 38.7692 41.2239 38.9394 41.5269 39.2424C41.8298 39.5453 42 39.9562 42 40.3846C42 40.813 41.8298 41.2239 41.5269 41.5269C41.2239 41.8298 40.813 42 40.3846 42H14.5385C14.4983 42 14.4588 41.9986 14.42 41.9957C12.9058 41.9375 11.62 41.2828 10.3578 40.32C9.09139 39.3551 7.67846 37.9422 5.95108 36.2126L5.78738 36.0489C4.05785 34.3215 2.64492 32.9086 1.68 31.6422C0.672 30.3197 0 28.9714 0 27.3582C0 25.7471 0.672 24.3966 1.68 23.0742C2.64492 21.8098 4.05785 20.3969 5.78738 18.6674L18.6674 5.78738C20.3969 4.05785 21.8098 2.64492 23.0742 1.68C24.3966 0.672 25.7449 0 27.3603 0C28.9714 0 30.3197 0.672 31.6422 1.68C32.9086 2.64492 34.3215 4.05785 36.0489 5.78738L36.2126 5.95108C37.9422 7.67846 39.3551 9.09139 40.32 10.3578C41.328 11.6803 42 13.0286 42 14.6418C42 16.2529 41.328 17.6034 40.32 18.9258C39.3551 20.1902 37.9422 21.6031 36.2126 23.3326L23.3326 36.2126ZM20.8708 8.15231C22.7015 6.32154 23.9615 5.06585 25.0342 4.24954C26.068 3.45908 26.7357 3.23077 27.3603 3.23077C27.9806 3.23077 28.6483 3.45908 29.6843 4.24954C30.7548 5.068 32.0169 6.32154 33.8477 8.15231C35.6785 9.98308 36.9342 11.2452 37.7526 12.3157C38.5409 13.3517 38.7692 14.0172 38.7692 14.6418C38.7692 15.2643 38.5409 15.932 37.7505 16.9658C36.932 18.0385 35.6785 19.2985 33.8477 21.1292L24.8145 30.1603L11.8397 17.1855L20.8708 8.15231ZM14.6418 38.7692C15.2643 38.7692 15.932 38.5409 16.9658 37.7505C18.0385 36.932 19.2985 35.6785 21.1292 33.8477L22.5292 32.4455L9.55446 19.4686L8.15446 20.8686C6.32369 22.6994 5.06585 23.9615 4.24954 25.0342C3.45908 26.068 3.23077 26.7357 3.23077 27.3603C3.23077 27.9806 3.45908 28.6483 4.24954 29.6843C5.068 30.7548 6.32154 32.0169 8.15231 33.8477C9.98308 35.6785 11.2452 36.9342 12.3157 37.7526C13.3517 38.5409 14.0172 38.7692 14.6418 38.7692Z" fill="black"/>
</svg>
