<svg width="25" height="24" viewBox="0 0 25 24" fill="none" xmlns="http://www.w3.org/2000/svg">
<path d="M16.4405 4.00001L14.9375 5.50001H5.70148L5.55748 5.50601C5.11978 5.54215 4.71167 5.74155 4.41416 6.06462C4.11665 6.38769 3.95149 6.81082 3.95148 7.25001V9.49001L6.56148 7.85001C7.04215 7.54784 7.61929 7.43856 8.17716 7.54409C8.73503 7.64961 9.23238 7.96215 9.56948 8.41901L9.66448 8.55801C9.8579 8.86603 9.97377 9.21635 10.0022 9.57895C10.0305 9.94156 9.97061 10.3056 9.82748 10.64L9.74848 10.806L8.54048 13.092C8.46917 13.227 8.44079 13.3806 8.45912 13.5322C8.47745 13.6838 8.54162 13.8262 8.64305 13.9404C8.74448 14.0545 8.87834 14.135 9.02674 14.171C9.17513 14.2071 9.33099 14.1969 9.47348 14.142L9.57148 14.096L11.3315 13.103C11.4966 13.0107 11.6905 12.9842 11.8743 13.0288C12.0581 13.0734 12.2183 13.1858 12.3227 13.3435C12.4272 13.5012 12.4682 13.6925 12.4376 13.8792C12.4069 14.0658 12.3069 14.234 12.1575 14.35L12.0725 14.407L10.3075 15.403C9.89597 15.6346 9.42201 15.7309 8.95275 15.6782C8.48349 15.6255 8.04271 15.4265 7.69284 15.1093C7.34296 14.7922 7.10173 14.373 7.00332 13.9112C6.9049 13.4493 6.95429 12.9682 7.14448 12.536L7.21448 12.391L8.42248 10.105C8.49503 9.96745 8.52302 9.81074 8.50259 9.65657C8.48215 9.5024 8.41429 9.35839 8.3084 9.24449C8.20251 9.13058 8.06384 9.05241 7.91156 9.02079C7.75929 8.98918 7.60096 9.00568 7.45848 9.06801L7.36048 9.12001L3.95148 11.262V16.755C3.95148 17.721 4.73548 18.505 5.70148 18.505H19.2015C19.6656 18.505 20.1107 18.3206 20.4389 17.9924C20.7671 17.6643 20.9515 17.2191 20.9515 16.755V9.44301L22.4515 7.94601V16.755C22.4515 17.1818 22.3674 17.6044 22.2041 17.9987C22.0408 18.393 21.8014 18.7513 21.4996 19.0531C21.1978 19.3549 20.8395 19.5943 20.4452 19.7576C20.0509 19.9209 19.6283 20.005 19.2015 20.005H5.70148C4.83952 20.005 4.01287 19.6626 3.40338 19.0531C2.79389 18.4436 2.45148 17.617 2.45148 16.755V7.25001C2.45142 6.41987 2.76903 5.62118 3.33915 5.01778C3.90927 4.41438 4.68867 4.05201 5.51748 4.00501L5.70148 4.00001H16.4405ZM21.6265 3.54501L21.7565 3.66501L21.8775 3.79501C22.2486 4.2294 22.4423 4.78778 22.4199 5.3587C22.3975 5.92961 22.1606 6.47107 21.7565 6.87501L17.4755 11.148C17.2124 11.4103 16.8884 11.6034 16.5325 11.71L14.2055 12.41C14.0308 12.4626 13.845 12.4665 13.6683 12.4211C13.4916 12.3757 13.3306 12.2828 13.2029 12.1525C13.0752 12.0222 12.9855 11.8595 12.9437 11.6819C12.9018 11.5043 12.9094 11.3186 12.9655 11.145L13.7045 8.85001C13.8145 8.51001 14.0035 8.20001 14.2565 7.94701L18.5465 3.66401C18.9505 3.26007 19.4921 3.02336 20.063 3.00111C20.6339 2.97887 21.1922 3.17273 21.6265 3.54401M19.6065 4.72401L15.3165 9.00801C15.2322 9.092 15.1691 9.19483 15.1325 9.30801L14.6855 10.698L16.1015 10.273C16.2201 10.2372 16.3279 10.1726 16.4155 10.085L20.6955 5.81201L20.7705 5.72601C20.889 5.57013 20.9435 5.37492 20.923 5.18019C20.9025 4.98547 20.8085 4.8059 20.6602 4.6781C20.5118 4.55029 20.3203 4.48389 20.1247 4.49242C19.9291 4.50095 19.7431 4.58378 19.6065 4.72401Z" fill="black"/>
</svg>
