<svg width="50" height="50" viewBox="0 0 50 50" fill="none" xmlns="http://www.w3.org/2000/svg">
<g clip-path="url(#clip0_1_22)">
<path d="M2.28571 28.0714C5.08929 24.1536 13.5857 13.0214 23.525 6.76073C31 2.05359 38.0607 8.26787 32.5857 14.525C27.2321 20.6464 20.05 29.0714 16.9857 33.2536C13.8071 37.5893 19.2464 42.8322 24.6893 37.8429C28.3286 34.5072 32.1179 30.6714 35.9679 27.8357C41.1679 24.0107 45.6286 27.3893 43.3607 31.7C41.7179 34.8179 40.5286 36.1929 39.1571 38.8143C37.7893 41.4393 39.2393 44.5822 41.3143 44.8536C43.8857 45.1893 45.5143 43.3429 47.7107 40.4679" stroke="black" stroke-width="9" stroke-linecap="round" stroke-linejoin="round"/>
</g>
<defs>
<clipPath id="clip0_1_22">
<rect width="50" height="50" fill="white"/>
</clipPath>
</defs>
</svg>
